<svg width="74" height="74" viewBox="0 0 74 74" fill="none" xmlns="http://www.w3.org/2000/svg">
<path d="M64.2567 14.2142C62.6819 12.6386 60.812 11.3888 58.754 10.536C56.696 9.68329 54.4902 9.24438 52.2625 9.24438C50.0349 9.24438 47.829 9.68329 45.771 10.536C43.713 11.3888 41.8432 12.6386 40.2684 14.2142L37 17.4825L33.7317 14.2142C30.5506 11.0331 26.2362 9.24603 21.7375 9.24603C17.2388 9.24603 12.9244 11.0331 9.74335 14.2142C6.5623 17.3952 4.77521 21.7097 4.77521 26.2083C4.77521 30.707 6.5623 35.0215 9.74335 38.2025L37 65.4592L64.2567 38.2025C65.8323 36.6277 67.0821 34.7579 67.9348 32.6999C68.7876 30.6419 69.2265 28.436 69.2265 26.2083C69.2265 23.9807 68.7876 21.7748 67.9348 19.7168C67.0821 17.6588 65.8323 15.789 64.2567 14.2142Z" stroke="#1E1E1E" stroke-width="4" stroke-linecap="round" stroke-linejoin="round"/>
</svg>
