<svg width="67" height="67" viewBox="0 0 67 67" fill="none" xmlns="http://www.w3.org/2000/svg">
<path d="M33.5 61.4167C32.8486 61.4167 32.2903 61.2306 31.825 60.8584C31.3597 60.4861 31.0107 59.9976 30.7781 59.3927C29.8941 56.7872 28.7774 54.3445 27.4281 52.0646C26.1253 49.7848 24.2875 47.1094 21.9146 44.0386C19.5416 40.9677 17.6107 38.0365 16.1219 35.2448C14.6795 32.4532 13.9583 29.0799 13.9583 25.125C13.9583 19.6813 15.8427 15.075 19.6114 11.3063C23.4267 7.49101 28.0562 5.58337 33.5 5.58337C38.9437 5.58337 43.55 7.49101 47.3187 11.3063C51.134 15.075 53.0416 19.6813 53.0416 25.125C53.0416 29.3591 52.2274 32.8952 50.5989 35.7334C49.017 38.525 47.1791 41.2934 45.0854 44.0386C42.5729 47.3886 40.6653 50.1802 39.3625 52.4136C38.1062 54.6004 37.0594 56.9268 36.2219 59.3927C35.9892 60.0441 35.617 60.5559 35.1052 60.9282C34.6399 61.2539 34.1048 61.4167 33.5 61.4167ZM33.5 51.4365C34.291 49.8545 35.175 48.2959 36.1521 46.7605C37.1757 45.225 38.6646 43.1778 40.6187 40.6188C42.6194 38.0132 44.2479 35.6171 45.5041 33.4302C46.8069 31.1969 47.4583 28.4285 47.4583 25.125C47.4583 21.2632 46.0857 17.983 43.3406 15.2844C40.642 12.5393 37.3618 11.1667 33.5 11.1667C29.6382 11.1667 26.3347 12.5393 23.5896 15.2844C20.891 17.983 19.5416 21.2632 19.5416 25.125C19.5416 28.4285 20.1698 31.1969 21.426 33.4302C22.7288 35.6171 24.3805 38.0132 26.3812 40.6188C28.3354 43.1778 29.801 45.225 30.7781 46.7605C31.8017 48.2959 32.709 49.8545 33.5 51.4365ZM33.5 32.1042C35.4541 32.1042 37.1059 31.4296 38.4552 30.0802C39.8045 28.7309 40.4791 27.0792 40.4791 25.125C40.4791 23.1709 39.8045 21.5191 38.4552 20.1698C37.1059 18.8205 35.4541 18.1459 33.5 18.1459C31.5458 18.1459 29.8941 18.8205 28.5448 20.1698C27.1955 21.5191 26.5208 23.1709 26.5208 25.125C26.5208 27.0792 27.1955 28.7309 28.5448 30.0802C29.8941 31.4296 31.5458 32.1042 33.5 32.1042Z" fill="#1D1B20"/>
</svg>
