<?xml version="1.0" standalone="no"?>
<!DOCTYPE svg PUBLIC "-//W3C//DTD SVG 20010904//EN"
 "http://www.w3.org/TR/2001/REC-SVG-20010904/DTD/svg10.dtd">
<svg version="1.0" xmlns="http://www.w3.org/2000/svg"
 width="800.000000pt" height="800.000000pt" viewBox="0 0 800.000000 800.000000"
 preserveAspectRatio="xMidYMid meet">

<g transform="translate(0.000000,800.000000) scale(0.100000,-0.100000)"
fill="#000000" stroke="none">
<path d="M1915 6570 c-188 -34 -347 -151 -425 -315 -44 -93 -60 -159 -60 -255
0 -96 16 -162 60 -255 93 -195 291 -318 510 -318 168 -1 291 51 410 172 179
180 220 429 108 660 -42 86 -160 207 -244 249 -112 57 -252 81 -359 62z"/>
<path d="M5974 6571 c-129 -21 -227 -72 -324 -170 -51 -51 -86 -97 -108 -142
-112 -231 -71 -480 108 -660 119 -121 242 -173 410 -172 219 0 417 123 510
318 44 93 60 159 60 255 0 96 -16 162 -60 255 -44 92 -116 173 -202 229 -110
70 -273 106 -394 87z"/>
<path d="M1792 5264 c-288 -85 -500 -305 -599 -621 l-28 -88 -3 -1429 -2
-1429 106 6 c59 4 147 7 196 7 l88 0 0 1368 c0 1223 2 1374 16 1423 40 136
131 249 250 310 66 33 71 34 189 34 113 0 123 -2 180 -30 94 -47 183 -142 235
-250 91 -192 171 -303 277 -381 91 -68 189 -117 300 -151 120 -36 304 -38 433
-4 111 29 259 101 286 138 61 84 56 187 -13 258 -76 79 -155 85 -274 23 l-81
-43 -117 0 c-113 0 -118 1 -192 36 -128 62 -182 125 -255 302 -94 227 -232
376 -436 471 -130 61 -199 76 -349 75 -101 0 -139 -5 -207 -25z"/>
<path d="M5857 5271 c-265 -72 -468 -256 -581 -528 -73 -177 -127 -240 -255
-302 -74 -35 -79 -36 -192 -36 l-117 0 -81 43 c-119 62 -198 56 -274 -23 -69
-71 -74 -174 -13 -258 27 -37 175 -109 286 -138 129 -34 313 -32 433 4 111 34
209 83 301 151 103 77 183 187 271 372 38 79 61 112 114 164 38 37 92 78 126
95 57 28 67 30 180 30 118 0 123 -1 189 -34 119 -61 210 -174 250 -310 14 -49
16 -200 16 -1423 l0 -1368 88 0 c49 0 137 -3 196 -7 l106 -6 -2 1429 -3 1429
-28 88 c-51 163 -135 306 -240 409 -110 107 -219 171 -363 213 -110 32 -299
35 -407 6z"/>
<path d="M3907 5266 c-163 -59 -235 -256 -149 -409 117 -209 427 -185 513 41
54 145 -25 318 -169 366 -55 19 -144 20 -195 2z"/>
<path d="M1760 3970 l0 -180 41 0 c61 0 140 -26 206 -69 65 -42 108 -88 147
-160 57 -105 56 -91 56 -1013 l0 -848 195 0 196 0 -3 893 -3 892 -33 94 c-59
169 -159 310 -294 416 -132 104 -272 155 -422 155 l-86 0 0 -180z"/>
<path d="M6053 4131 c-249 -72 -461 -282 -555 -552 l-33 -94 -3 -892 -3 -893
196 0 195 0 0 848 c0 922 -1 908 56 1013 39 72 82 118 147 160 66 43 145 69
206 69 l41 0 0 180 0 180 -92 -1 c-57 0 -117 -7 -155 -18z"/>
<path d="M3315 1396 c-28 -12 -45 -35 -59 -79 -8 -25 17 -81 45 -101 56 -38
149 -2 164 63 10 45 -18 99 -59 116 -42 18 -52 18 -91 1z"/>
<path d="M2310 1066 c0 -267 0 -274 -23 -307 -35 -52 -82 -79 -139 -79 -27 0
-58 5 -69 10 -18 10 -19 7 -19 -79 l0 -90 36 -7 c94 -17 231 31 296 105 17 19
43 60 57 91 26 55 26 57 29 343 l3 287 -85 0 -86 0 0 -274z"/>
<path d="M4240 1060 c0 -257 2 -284 21 -334 27 -73 96 -148 167 -183 77 -38
200 -40 277 -5 68 31 132 95 166 167 l29 60 0 288 0 287 -80 0 -80 0 0 -262
c0 -245 -1 -264 -21 -305 -28 -57 -69 -86 -135 -91 -64 -5 -124 24 -157 78
-21 33 -22 47 -25 308 l-3 272 -80 0 -79 0 0 -280z"/>
<path d="M5755 1303 c2 -21 9 -132 15 -248 5 -116 13 -238 16 -272 l6 -63 64
0 c60 0 64 2 64 23 0 12 7 130 15 262 8 132 15 261 15 288 l0 47 -100 0 -100
0 5 -37z"/>
<path d="M2812 1150 c-105 -22 -195 -99 -233 -199 -30 -79 -24 -205 13 -276
31 -60 86 -114 148 -146 38 -20 60 -24 135 -24 78 0 97 4 141 27 102 54 164
152 172 274 8 125 -40 232 -133 295 -66 45 -165 65 -243 49z m140 -176 c44
-23 72 -71 76 -135 4 -49 0 -65 -21 -102 -82 -140 -287 -78 -287 87 0 84 34
135 107 162 40 14 81 10 125 -12z"/>
<path d="M5230 1129 c-24 -11 -59 -31 -76 -44 l-32 -25 -31 35 c-17 19 -40 35
-51 35 -20 0 -20 -5 -20 -430 l0 -430 80 0 80 0 0 140 0 139 53 -24 c62 -30
150 -33 221 -9 69 24 150 102 177 172 29 74 31 186 6 260 -27 75 -103 155
-173 181 -73 28 -173 28 -234 0z m195 -159 c68 -42 93 -143 53 -220 -75 -146
-275 -107 -295 58 -16 141 124 234 242 162z"/>
<path d="M3736 1124 c-22 -8 -47 -21 -56 -29 -23 -21 -36 -19 -58 10 -11 14
-29 25 -41 25 -21 0 -21 -1 -21 -310 l0 -310 80 0 80 0 0 190 c0 204 5 232 52
264 13 9 43 16 69 16 51 0 91 -27 109 -75 6 -15 10 -109 10 -211 l0 -184 81 0
81 0 -4 213 c-3 207 -4 213 -30 262 -54 103 -138 155 -248 154 -36 0 -83 -7
-104 -15z"/>
<path d="M3280 820 l0 -310 80 0 80 0 0 310 0 310 -80 0 -80 0 0 -310z"/>
<path d="M5813 660 c-32 -13 -57 -57 -56 -98 1 -49 48 -92 99 -92 50 0 94 45
94 95 0 47 -13 71 -50 90 -32 17 -54 18 -87 5z"/>
</g>
</svg>
