<svg width="34" height="34" viewBox="0 0 34 34" fill="none" xmlns="http://www.w3.org/2000/svg">
<path d="M29.8662 16.4357C29.8709 18.2544 29.446 20.0484 28.626 21.6718C27.6538 23.617 26.1592 25.2532 24.3096 26.397C22.4601 27.5408 20.3286 28.1471 18.1539 28.1479C16.3352 28.1527 14.5412 27.7278 12.9178 26.9078L5.06372 29.5259L7.68176 21.6718C6.8618 20.0484 6.43689 18.2544 6.44163 16.4357C6.44248 14.261 7.04876 12.1295 8.19257 10.2799C9.33639 8.43036 10.9726 6.93576 12.9178 5.96355C14.5412 5.1436 16.3352 4.71869 18.1539 4.72343H18.8428C21.7149 4.88188 24.4276 6.09412 26.4615 8.12806C28.4955 10.162 29.7077 12.8747 29.8662 15.7467V16.4357Z" stroke="#1E1E1E" stroke-width="4" stroke-linecap="round" stroke-linejoin="round"/>
</svg>
