<svg width="67" height="67" viewBox="0 0 67 67" fill="none" xmlns="http://www.w3.org/2000/svg">
<path d="M62.2806 16.61C62.2806 11.233 55.08 7.17896 45.5306 7.17896C35.9811 7.17896 28.7806 11.233 28.7806 16.61C28.7806 16.6578 28.791 16.7029 28.7924 16.75H28.7806V23.9283H33.5661V23.3355C36.5608 25.0243 40.7509 26.0397 45.5306 26.0397C49.9399 26.0397 53.8356 25.1675 56.7655 23.7078C57.2196 24.1776 57.4951 24.6448 57.4951 25.0543C57.4951 26.9027 52.7233 29.6985 45.5306 29.6985H40.7464V34.4841H45.5306C49.9405 34.4841 53.8375 33.6119 56.7675 32.1515C57.2222 32.6206 57.4944 33.0878 57.4944 33.4994C57.4944 35.3491 52.7226 38.1449 45.5299 38.1449L43.8359 38.1527C42.795 38.1619 41.7867 38.1717 40.8039 38.1455L40.6868 42.9291C41.2129 42.9422 41.7455 42.9468 42.2885 42.9468C42.8074 42.9468 43.3354 42.9435 43.8719 42.9389L45.5299 42.9311C49.9425 42.9311 53.8408 42.0576 56.7714 40.5959C57.2274 41.0689 57.4937 41.5387 57.4937 41.945C57.4937 43.7947 52.722 46.5905 45.5293 46.5905H40.7451V51.3761H45.5293C49.9418 51.3761 53.8395 50.5026 56.7707 49.0409C57.2274 49.5133 57.4937 49.9831 57.4937 50.39C57.4937 52.2397 52.722 55.0355 45.5293 55.0355H40.7451V59.8211H45.5293C55.0787 59.8211 62.2793 55.767 62.2793 50.39C62.2793 50.3455 62.2734 50.2952 62.2721 50.25H62.2793V16.75H62.2675C62.2695 16.7029 62.2806 16.6571 62.2806 16.61ZM33.5661 16.61C33.5661 14.7603 38.3379 11.9645 45.5306 11.9645C52.7233 11.9645 57.4951 14.7603 57.4951 16.61C57.4951 18.4584 52.7233 21.2542 45.5306 21.2542C38.3379 21.2542 33.5661 18.4584 33.5661 16.61Z" fill="black" stroke="black" stroke-width="0.78125"/>
<path d="M21.6016 23.9283C12.0522 23.9283 4.85162 27.9824 4.85162 33.3594C4.85162 33.4071 4.86209 33.4523 4.8634 33.4994H4.85162V50.2494C4.85162 55.6264 12.0522 59.6804 21.6016 59.6804C31.1511 59.6804 38.3516 55.6264 38.3516 50.2494V33.5001H38.3398C38.3412 33.4529 38.3516 33.4071 38.3516 33.36C38.3516 27.983 31.1511 23.9283 21.6016 23.9283ZM9.63715 41.805C9.63715 41.3915 9.90737 40.925 10.3621 40.4559C13.2927 41.9169 17.1904 42.7898 21.6016 42.7898C26.0109 42.7898 29.9066 41.9176 32.8366 40.4578C33.2906 40.9276 33.5661 41.3948 33.5661 41.8044C33.5661 43.6528 28.7943 46.4486 21.6016 46.4486C14.4089 46.4486 9.63715 43.6534 9.63715 41.805ZM21.6016 28.7145C28.7943 28.7145 33.5661 31.5103 33.5661 33.36C33.5661 35.2084 28.7943 38.0042 21.6016 38.0042C14.4089 38.0042 9.63715 35.2084 9.63715 33.36C9.63715 31.5103 14.4089 28.7145 21.6016 28.7145ZM21.6016 54.8956C14.4089 54.8956 9.63715 52.0997 9.63715 50.2501C9.63715 49.8385 9.90999 49.3713 10.3641 48.9022C13.2947 50.3626 17.191 51.2354 21.6016 51.2354C26.0116 51.2354 29.9086 50.3632 32.8385 48.9029C33.2933 49.372 33.5654 49.8392 33.5654 50.2507C33.5661 52.0997 28.7943 54.8956 21.6016 54.8956Z" fill="black" stroke="black" stroke-width="0.78125"/>
</svg>
