<svg width="32" height="22" viewBox="0 0 32 22" fill="none" xmlns="http://www.w3.org/2000/svg">
<path d="M0 21.6667V17.9667C0 17.2112 0.188889 16.5112 0.566667 15.8667C0.944445 15.2223 1.46667 14.7334 2.13333 14.4C2.44444 14.2445 2.74444 14.1 3.03333 13.9667C3.34444 13.8334 3.66667 13.7112 4 13.6V21.6667H0ZM5.33333 12.3334C4.22222 12.3334 3.27778 11.9445 2.5 11.1667C1.72222 10.3889 1.33333 9.44449 1.33333 8.33337C1.33333 7.22226 1.72222 6.27782 2.5 5.50004C3.27778 4.72226 4.22222 4.33337 5.33333 4.33337C6.44444 4.33337 7.38889 4.72226 8.16667 5.50004C8.94444 6.27782 9.33333 7.22226 9.33333 8.33337C9.33333 9.44449 8.94444 10.3889 8.16667 11.1667C7.38889 11.9445 6.44444 12.3334 5.33333 12.3334ZM5.33333 9.66671C5.71111 9.66671 6.02222 9.54449 6.26667 9.30004C6.53333 9.03338 6.66667 8.71115 6.66667 8.33337C6.66667 7.9556 6.53333 7.64449 6.26667 7.40004C6.02222 7.13337 5.71111 7.00004 5.33333 7.00004C4.95556 7.00004 4.63333 7.13337 4.36667 7.40004C4.12222 7.64449 4 7.9556 4 8.33337C4 8.71115 4.12222 9.03338 4.36667 9.30004C4.63333 9.54449 4.95556 9.66671 5.33333 9.66671ZM5.33333 21.6667V17.9334C5.33333 17.1778 5.52222 16.4889 5.9 15.8667C6.3 15.2223 6.82222 14.7334 7.46667 14.4C8.84445 13.7112 10.2444 13.2 11.6667 12.8667C13.0889 12.5112 14.5333 12.3334 16 12.3334C17.4667 12.3334 18.9111 12.5112 20.3333 12.8667C21.7556 13.2 23.1556 13.7112 24.5333 14.4C25.1778 14.7334 25.6889 15.2223 26.0667 15.8667C26.4667 16.4889 26.6667 17.1778 26.6667 17.9334V21.6667H5.33333ZM8 19H24V17.9334C24 17.6889 23.9333 17.4667 23.8 17.2667C23.6889 17.0667 23.5333 16.9112 23.3333 16.8C22.1333 16.2 20.9222 15.7556 19.7 15.4667C18.4778 15.1556 17.2444 15 16 15C14.7556 15 13.5222 15.1556 12.3 15.4667C11.0778 15.7556 9.86667 16.2 8.66667 16.8C8.46667 16.9112 8.3 17.0667 8.16667 17.2667C8.05556 17.4667 8 17.6889 8 17.9334V19ZM16 11C14.5333 11 13.2778 10.4778 12.2333 9.43337C11.1889 8.38893 10.6667 7.13337 10.6667 5.66671C10.6667 4.20004 11.1889 2.94449 12.2333 1.90004C13.2778 0.855597 14.5333 0.333374 16 0.333374C17.4667 0.333374 18.7222 0.855597 19.7667 1.90004C20.8111 2.94449 21.3333 4.20004 21.3333 5.66671C21.3333 7.13337 20.8111 8.38893 19.7667 9.43337C18.7222 10.4778 17.4667 11 16 11ZM16 8.33337C16.7333 8.33337 17.3556 8.07782 17.8667 7.56671C18.4 7.03337 18.6667 6.40004 18.6667 5.66671C18.6667 4.93337 18.4 4.31115 17.8667 3.80004C17.3556 3.26671 16.7333 3.00004 16 3.00004C15.2667 3.00004 14.6333 3.26671 14.1 3.80004C13.5889 4.31115 13.3333 4.93337 13.3333 5.66671C13.3333 6.40004 13.5889 7.03337 14.1 7.56671C14.6333 8.07782 15.2667 8.33337 16 8.33337ZM26.6667 12.3334C25.5556 12.3334 24.6111 11.9445 23.8333 11.1667C23.0556 10.3889 22.6667 9.44449 22.6667 8.33337C22.6667 7.22226 23.0556 6.27782 23.8333 5.50004C24.6111 4.72226 25.5556 4.33337 26.6667 4.33337C27.7778 4.33337 28.7222 4.72226 29.5 5.50004C30.2778 6.27782 30.6667 7.22226 30.6667 8.33337C30.6667 9.44449 30.2778 10.3889 29.5 11.1667C28.7222 11.9445 27.7778 12.3334 26.6667 12.3334ZM26.6667 9.66671C27.0444 9.66671 27.3556 9.54449 27.6 9.30004C27.8667 9.03338 28 8.71115 28 8.33337C28 7.9556 27.8667 7.64449 27.6 7.40004C27.3556 7.13337 27.0444 7.00004 26.6667 7.00004C26.2889 7.00004 25.9667 7.13337 25.7 7.40004C25.4556 7.64449 25.3333 7.9556 25.3333 8.33337C25.3333 8.71115 25.4556 9.03338 25.7 9.30004C25.9667 9.54449 26.2889 9.66671 26.6667 9.66671ZM28 21.6667V13.6C28.3333 13.7112 28.6444 13.8334 28.9333 13.9667C29.2444 14.1 29.5556 14.2445 29.8667 14.4C30.5333 14.7334 31.0556 15.2223 31.4333 15.8667C31.8111 16.5112 32 17.2112 32 17.9667V21.6667H28Z" fill="black"/>
</svg>
