<svg width="34" height="34" viewBox="0 0 34 34" fill="none" xmlns="http://www.w3.org/2000/svg">
<g clip-path="url(#clip0_217_197)">
<path d="M22.1589 29.5258V26.77C22.1589 25.3082 21.5782 23.9063 20.5446 22.8727C19.511 21.839 18.1091 21.2583 16.6473 21.2583H7.00189C5.5401 21.2583 4.13819 21.839 3.10456 22.8727C2.07092 23.9063 1.49023 25.3082 1.49023 26.77V29.5258M24.9148 11.613L31.8043 18.5025M31.8043 11.613L24.9148 18.5025M17.3362 10.235C17.3362 13.279 14.8686 15.7467 11.8246 15.7467C8.78058 15.7467 6.31293 13.279 6.31293 10.235C6.31293 7.19104 8.78058 4.72339 11.8246 4.72339C14.8686 4.72339 17.3362 7.19104 17.3362 10.235Z" stroke="#1E1E1E" stroke-width="4" stroke-linecap="round" stroke-linejoin="round"/>
</g>
<defs>
<clipPath id="clip0_217_197">
<rect width="33.0699" height="33.0699" fill="white" transform="translate(0.112305 0.5896)"/>
</clipPath>
</defs>
</svg>
