<svg width="34" height="34" viewBox="0 0 34 34" fill="none" xmlns="http://www.w3.org/2000/svg">
<path d="M29.8664 16.4356C29.8711 18.2542 29.4462 20.0483 28.6263 21.6716C27.6541 23.6169 26.1595 25.2531 24.3099 26.3969C22.4603 27.5407 20.3288 28.147 18.1541 28.1478C16.3355 28.1526 14.5414 27.7277 12.9181 26.9077L5.06396 29.5257L7.682 21.6716C6.86205 20.0483 6.43714 18.2542 6.44188 16.4356C6.44272 14.2609 7.049 12.1294 8.19282 10.2798C9.33663 8.43023 10.9728 6.93564 12.9181 5.96343C14.5414 5.14347 16.3355 4.71856 18.1541 4.72331H18.8431C21.7151 4.88175 24.4278 6.094 26.4618 8.12793C28.4957 10.1619 29.7079 12.8746 29.8664 15.7466V16.4356Z" stroke="#1E1E1E" stroke-width="4" stroke-linecap="round" stroke-linejoin="round"/>
</svg>
