<svg width="26" height="31" viewBox="0 0 26 31" fill="none" xmlns="http://www.w3.org/2000/svg">
<path d="M6.84852 14.1322V9.02333C6.84852 7.32962 7.47856 5.70529 8.60005 4.50766C9.72153 3.31003 11.2426 2.63721 12.8286 2.63721C14.4146 2.63721 15.9357 3.31003 17.0572 4.50766C18.1786 5.70529 18.8087 7.32962 18.8087 9.02333V14.1322M4.45649 14.1322H21.2007C22.5218 14.1322 23.5928 15.2759 23.5928 16.6867V25.6272C23.5928 27.038 22.5218 28.1817 21.2007 28.1817H4.45649C3.1354 28.1817 2.06445 27.038 2.06445 25.6272V16.6867C2.06445 15.2759 3.1354 14.1322 4.45649 14.1322Z" stroke="#1E1E1E" stroke-width="4" stroke-linecap="round" stroke-linejoin="round"/>
</svg>
