<svg width="238" height="238" viewBox="0 0 238 238" fill="none" xmlns="http://www.w3.org/2000/svg">
<path d="M182.833 188.625V173.042C182.833 164.776 179.444 156.848 173.412 151.004C167.38 145.159 159.198 141.875 150.667 141.875H86.3334C77.8023 141.875 69.6206 145.159 63.5881 151.004C57.5557 156.848 54.1667 164.776 54.1667 173.042V188.625M150.667 79.5417C150.667 96.7545 136.265 110.708 118.5 110.708C100.735 110.708 86.3334 96.7545 86.3334 79.5417C86.3334 62.3288 100.735 48.375 118.5 48.375C136.265 48.375 150.667 62.3288 150.667 79.5417Z" stroke="#1E1E1E" stroke-width="4" stroke-linecap="round" stroke-linejoin="round"/>
<path d="M119 218.167C173.768 218.167 218.167 173.768 218.167 119C218.167 64.2317 173.768 19.8333 119 19.8333C64.2317 19.8333 19.8333 64.2317 19.8333 119C19.8333 173.768 64.2317 218.167 119 218.167Z" stroke="#1E1E1E" stroke-width="4" stroke-linecap="round" stroke-linejoin="round"/>
</svg>
